<svg width="22" height="20" viewBox="0 0 22 20" fill="none" xmlns="http://www.w3.org/2000/svg">
<path d="M19.25 3.12481H17.3499L15.9742 0.37471H6.02455L4.65015 3.12616L2.75275 3.12953C1.24009 3.13224 0.00869272 4.36494 0.00738656 5.87828L0 16.8746C0 18.3913 1.23337 19.6253 2.7501 19.6253H19.25C20.7667 19.6253 22.0001 18.392 22.0001 16.8752V5.87486C22 4.35818 20.7666 3.12481 19.25 3.12481ZM10.9997 16.1877C7.9669 16.1877 5.49947 13.7203 5.49947 10.6875C5.49947 7.65475 7.9669 5.18732 10.9997 5.18732C14.0324 5.18732 16.4999 7.65475 16.4999 10.6875C16.4999 13.7203 14.0324 16.1877 10.9997 16.1877Z" fill="#989898"/>
</svg>
